<?xml version="1.0" encoding="UTF-8"?>
<svg width="148px" height="22px" viewBox="0 0 148 22" version="1.1" xmlns="http://www.w3.org/2000/svg" xmlns:xlink="http://www.w3.org/1999/xlink">
    <!-- Generator: Sketch 51.2 (57519) - http://www.bohemiancoding.com/sketch -->
    <title>logo+</title>
    <desc>Created with Sketch.</desc>
    <defs></defs>
    <g id="Page-1" stroke="none" stroke-width="1" fill="none" fill-rule="evenodd">
        <g id="logo+">
            <path d="M76.76,20.76 C76.1,21.42 75.305,21.75 74.375,21.75 C73.445,21.75 72.65,21.42 71.99,20.76 C71.33,20.1 71,19.305 71,18.375 C71,17.445 71.315,16.65 71.945,15.99 C72.605,15.33 73.415,15 74.375,15 C75.305,15 76.1,15.33 76.76,15.99 C77.42,16.65 77.75,17.445 77.75,18.375 C77.75,19.305 77.42,20.1 76.76,20.76 Z" id="Shape" fill="#CF000F" fill-rule="nonzero"></path>
            <path d="M97.69,16.35 L100.63,6 L104.05,6 L99.34,21 L96.16,21 L93.04,10.89 L89.89,21 L86.71,21 L82,6 L85.42,6 L88.33,16.35 L91.48,6 L94.57,6 L97.69,16.35 Z M118.54,19.11 C117.019992,20.6300076 115.150011,21.39 112.93,21.39 C110.709989,21.39 108.840008,20.6300076 107.32,19.11 C105.779992,17.5699923 105.01,15.700011 105.01,13.5 C105.01,11.299989 105.779992,9.4300077 107.32,7.89 C108.840008,6.3699924 110.709989,5.61 112.93,5.61 C115.150011,5.61 117.019992,6.3699924 118.54,7.89 C120.080008,9.4300077 120.85,11.299989 120.85,13.5 C120.85,15.700011 120.080008,17.5699923 118.54,19.11 Z M108.25,13.5 C108.25,14.8600068 108.699995,15.9899955 109.6,16.89 C110.500004,17.7900045 111.609993,18.24 112.93,18.24 C114.250007,18.24 115.359996,17.7900045 116.26,16.89 C117.160005,15.9899955 117.61,14.8600068 117.61,13.5 C117.61,12.1399932 117.160005,11.0100045 116.26,10.11 C115.359996,9.2099955 114.250007,8.76 112.93,8.76 C111.609993,8.76 110.500004,9.2099955 109.6,10.11 C108.699995,11.0100045 108.25,12.1399932 108.25,13.5 Z M127.03,6 L127.03,8.52 C127.850004,6.6599907 129.389989,5.73 131.65,5.73 L131.65,9.24 C130.429994,9.1599996 129.350005,9.4599966 128.41,10.14 C127.489995,10.8000033 127.03,11.8999923 127.03,13.44 L127.03,21 L123.79,21 L123.79,6 L127.03,6 Z M140.47,13.35 L147.31,21 L143.44,21 L137.29,14.07 L137.29,21 L134.05,21 L134.05,0 L137.29,0 L137.29,12.63 L143.11,6 L147.07,6 L140.47,13.35 Z" id="work-copy" fill="#FFFFFF"></path>
            <path d="M8.59999995,5.61 C10.6600103,5.61 12.4199927,6.3699924 13.88,7.89 C15.3400073,9.4100076 16.07,11.2799889 16.07,13.5 C16.07,15.7200111 15.3400073,17.5899924 13.88,19.11 C12.4199927,20.6300076 10.6600103,21.39 8.59999995,21.39 C6.31998855,21.39 4.57000605,20.5400085 3.34999995,18.84 L3.34999995,21 L0.109999952,21 L0.109999952,0 L3.34999995,0 L3.34999995,8.13 C4.59000615,6.4499916 6.33998865,5.61 8.59999995,5.61 Z M4.69999995,16.95 C5.60000445,17.8500045 6.72999315,18.3 8.08999995,18.3 C9.45000675,18.3 10.5799955,17.8500045 11.48,16.95 C12.3800045,16.0299954 12.83,14.8800069 12.83,13.5 C12.83,12.1199931 12.3800045,10.9800045 11.48,10.08 C10.5799955,9.1599954 9.45000675,8.7 8.08999995,8.7 C6.72999315,8.7 5.60000445,9.1599954 4.69999995,10.08 C3.79999545,10.9800045 3.34999995,12.1199931 3.34999995,13.5 C3.34999995,14.8600068 3.79999545,16.0099953 4.69999995,16.95 Z M31.7,19.11 C30.1799924,20.6300076 28.3100111,21.39 26.09,21.39 C23.8699889,21.39 22.0000076,20.6300076 20.48,19.11 C18.9399923,17.5699923 18.17,15.700011 18.17,13.5 C18.17,11.299989 18.9399923,9.4300077 20.48,7.89 C22.0000076,6.3699924 23.8699889,5.61 26.09,5.61 C28.3100111,5.61 30.1799924,6.3699924 31.7,7.89 C33.2400077,9.4300077 34.01,11.299989 34.01,13.5 C34.01,15.700011 33.2400077,17.5699923 31.7,19.11 Z M21.41,13.5 C21.41,14.8600068 21.8599955,15.9899955 22.76,16.89 C23.6600045,17.7900045 24.7699934,18.24 26.09,18.24 C27.4100066,18.24 28.5199955,17.7900045 29.42,16.89 C30.3200045,15.9899955 30.77,14.8600068 30.77,13.5 C30.77,12.1399932 30.3200045,11.0100045 29.42,10.11 C28.5199955,9.2099955 27.4100066,8.76 26.09,8.76 C24.7699934,8.76 23.6600045,9.2099955 22.76,10.11 C21.8599955,11.0100045 21.41,12.1399932 21.41,13.5 Z M43.37,13.35 L50.21,21 L46.34,21 L40.19,14.07 L40.19,21 L36.95,21 L36.95,0 L40.19,0 L40.19,12.63 L46.01,6 L49.97,6 L43.37,13.35 Z M58.82,13.35 L65.66,21 L61.79,21 L55.64,14.07 L55.64,21 L52.4,21 L52.4,0 L55.64,0 L55.64,12.63 L61.46,6 L65.42,6 L58.82,13.35 Z" id="bokk-copy" fill="#FFFFFF"></path>
        </g>
    </g>
</svg>