<?xml version="1.0" encoding="UTF-8"?>
<svg width="147px" height="22px" viewBox="0 0 147 22" version="1.1" xmlns="http://www.w3.org/2000/svg" xmlns:xlink="http://www.w3.org/1999/xlink">
    <!-- Generator: Sketch 51.2 (57519) - http://www.bohemiancoding.com/sketch -->
    <title>logo</title>
    <desc>Created with Sketch.</desc>
    <defs>
        <path d="M98.35,17.43 L101.65,6 L104.38,6 L99.73,21 L97.06,21 L93.55,9.9 L90.04,21 L87.37,21 L82.72,6 L85.45,6 L88.75,17.4 L92.29,6 L94.81,6 L98.35,17.43 Z M119.14,19.11 C117.619992,20.6300076 115.750011,21.39 113.53,21.39 C111.309989,21.39 109.440008,20.6300076 107.92,19.11 C106.399992,17.5899924 105.64,15.7200111 105.64,13.5 C105.64,11.2799889 106.399992,9.4100076 107.92,7.89 C109.440008,6.3699924 111.309989,5.61 113.53,5.61 C115.750011,5.61 117.619992,6.3699924 119.14,7.89 C120.680008,9.4300077 121.45,11.299989 121.45,13.5 C121.45,15.700011 120.680008,17.5699923 119.14,19.11 Z M113.53,18.84 C115.030008,18.84 116.289995,18.3300051 117.31,17.31 C118.330005,16.2899949 118.84,15.0200076 118.84,13.5 C118.84,11.9799924 118.330005,10.7100051 117.31,9.69 C116.289995,8.6699949 115.030008,8.16 113.53,8.16 C112.049993,8.16 110.800005,8.6699949 109.78,9.69 C108.759995,10.7100051 108.25,11.9799924 108.25,13.5 C108.25,15.0200076 108.759995,16.2899949 109.78,17.31 C110.800005,18.3300051 112.049993,18.84 113.53,18.84 Z M127.15,6 L127.15,8.52 C128.010004,6.6599907 129.569989,5.73 131.83,5.73 L131.83,8.46 C130.549994,8.3999997 129.450005,8.7399963 128.53,9.48 C127.609995,10.2200037 127.15,11.4099918 127.15,13.05 L127.15,21 L124.54,21 L124.54,6 L127.15,6 Z M139.66,13.26 L147.07,21 L143.83,21 L136.99,13.89 L136.99,21 L134.38,21 L134.38,0 L136.99,0 L136.99,12.63 L143.47,6 L146.83,6 L139.66,13.26 Z" id="path-1"></path>
        <path d="M8.47999995,5.61 C10.5800105,5.61 12.3699926,6.3799923 13.85,7.92 C15.3300074,9.4600077 16.07,11.3199891 16.07,13.5 C16.07,15.700011 15.3300074,17.5699923 13.85,19.11 C12.3899927,20.6300076 10.6000106,21.39 8.47999995,21.39 C5.99998755,21.39 4.11000645,20.4000099 2.80999995,18.42 L2.80999995,21 L0.199999952,21 L0.199999952,0 L2.80999995,0 L2.80999995,8.58 C4.11000645,6.5999901 5.99998755,5.61 8.47999995,5.61 Z M8.14999995,18.87 C9.65000745,18.87 10.9099949,18.3600051 11.93,17.34 C12.9500051,16.2799947 13.46,15.0000075 13.46,13.5 C13.46,11.9799924 12.9500051,10.7100051 11.93,9.69 C10.9099949,8.6499948 9.65000745,8.13 8.14999995,8.13 C6.62999235,8.13 5.36000505,8.6499948 4.33999995,9.69 C3.31999485,10.7100051 2.80999995,11.9799924 2.80999995,13.5 C2.80999995,15.0000075 3.31999485,16.2799947 4.33999995,17.34 C5.36000505,18.3600051 6.62999235,18.87 8.14999995,18.87 Z M31.85,19.11 C30.3299924,20.6300076 28.4600111,21.39 26.24,21.39 C24.0199889,21.39 22.1500076,20.6300076 20.63,19.11 C19.1099924,17.5899924 18.35,15.7200111 18.35,13.5 C18.35,11.2799889 19.1099924,9.4100076 20.63,7.89 C22.1500076,6.3699924 24.0199889,5.61 26.24,5.61 C28.4600111,5.61 30.3299924,6.3699924 31.85,7.89 C33.3900077,9.4300077 34.16,11.299989 34.16,13.5 C34.16,15.700011 33.3900077,17.5699923 31.85,19.11 Z M26.24,18.84 C27.7400075,18.84 28.9999949,18.3300051 30.02,17.31 C31.0400051,16.2899949 31.55,15.0200076 31.55,13.5 C31.55,11.9799924 31.0400051,10.7100051 30.02,9.69 C28.9999949,8.6699949 27.7400075,8.16 26.24,8.16 C24.7599926,8.16 23.5100051,8.6699949 22.49,9.69 C21.4699949,10.7100051 20.96,11.9799924 20.96,13.5 C20.96,15.0200076 21.4699949,16.2899949 22.49,17.31 C23.5100051,18.3300051 24.7599926,18.84 26.24,18.84 Z M42.53,13.26 L49.94,21 L46.7,21 L39.86,13.89 L39.86,21 L37.25,21 L37.25,0 L39.86,0 L39.86,12.63 L46.34,6 L49.7,6 L42.53,13.26 Z M57.65,13.26 L65.06,21 L61.82,21 L54.98,13.89 L54.98,21 L52.37,21 L52.37,0 L54.98,0 L54.98,12.63 L61.46,6 L64.82,6 L57.65,13.26 Z" id="path-2"></path>
    </defs>
    <g id="Page-1" stroke="none" stroke-width="1" fill="none" fill-rule="evenodd">
        <g id="logo">
            <g id="work">
                <use fill="#000000" xlink:href="#path-1"></use>
                <use fill="#FFFFFF" xlink:href="#path-1"></use>
            </g>
            <path d="M77.76,19.76 C77.1,20.42 76.305,20.75 75.375,20.75 C74.445,20.75 73.65,20.42 72.99,19.76 C72.33,19.1 72,18.305 72,17.375 C72,16.445 72.315,15.65 72.945,14.99 C73.605,14.33 74.415,14 75.375,14 C76.305,14 77.1,14.33 77.76,14.99 C78.42,15.65 78.75,16.445 78.75,17.375 C78.75,18.305 78.42,19.1 77.76,19.76 Z" id="Shape" fill="#CF000F" fill-rule="nonzero"></path>
            <g id="bokk">
                <use fill="#000000" xlink:href="#path-2"></use>
                <use fill="#FFFFFF" xlink:href="#path-2"></use>
            </g>
        </g>
    </g>
</svg>